# xmcd
#
# Track frame offsets:
#	150
#	13167
#	27397
#	40192
#	56465
#	71990
#	88437
#	103652
#	120502
#	137740
#	156050
#	175920
#
# Disc length: 2562 seconds
#
# Revision: 1
# Processed by: cddbd v1.5.2PL0 Copyright (c) Steve Scherf et al.
# Submitted via: EasyCDDAExtractor 6.2.0.3
#
DISCID=a60a000c
DTITLE=The Juke Box Country Band - New Country - CD 2
DYEAR=1900
DGENRE=Country
TTITLE0=Don't You Know
TTITLE1=Release Me
TTITLE2=You Got My Number
TTITLE3=Crying My Heart Over You
TTITLE4=Welcome To My World
TTITLE5=There Is A River
TTITLE6=Where I'm Going To Live
TTITLE7=Send A Message To My Heart
TTITLE8=She's Not Crying Any More
TTITLE9=Don't Close Your Eyes
TTITLE10=Together Again
TTITLE11=Why You
EXTD=
EXTT0=
EXTT1=
EXTT2=
EXTT3=
EXTT4=
EXTT5=
EXTT6=
EXTT7=
EXTT8=
EXTT9=
EXTT10=
EXTT11=
PLAYORDER=
